<svg xmlns="http://www.w3.org/2000/svg" width="860" height="308" viewBox="0 0 860 308" role="img">
  <defs>
    <linearGradient id="bg-light" x1="0" y1="0" x2="0" y2="1"><stop offset="0" stop-color="#ffffff"/><stop offset="1" stop-color="#f6f8fa"/></linearGradient>
    <linearGradient id="bar-light" x1="0" y1="0" x2="1" y2="0"><stop offset="0" stop-color="#b8842f"/><stop offset="1" stop-color="#9a6b1f"/></linearGradient>
  </defs>
  <rect x="0.5" y="0.5" width="859" height="307" rx="12" fill="url(#bg-light)" stroke="#d0d7de"/>
  <rect x="0.5" y="0.5" width="859" height="2.5" rx="1" fill="#9a6b1f"/>
  <text x="30" y="42" font-family="ui-monospace,'SF Mono',Consolas,monospace" font-size="14" font-weight="700" letter-spacing="0.5" fill="#1f2328">Top projects</text>
  <text x="830" y="42" text-anchor="end" font-family="ui-monospace,'SF Mono',Consolas,monospace" font-size="12" letter-spacing="1.5" fill="#59636e">AUGUST 2026 · SHARE OF COMMITS</text>
  <line x1="30" y1="58" x2="830" y2="58" stroke="#d0d7de"/>
  <text x="30" y="88" font-family="ui-monospace,'SF Mono',Consolas,monospace" font-size="13.5" fill="#1f2328">ccremote</text>
        <rect x="180" y="80" width="420" height="7" rx="3.5" fill="#eaeef2"/>
        <rect x="180" y="80" width="420" height="7" rx="3.5" fill="url(#bar-light)"/>
        <text x="618" y="89" font-family="ui-monospace,'SF Mono',Consolas,monospace" font-size="14.5" font-weight="700" fill="#9a6b1f">49.4%</text>
        <text x="830" y="88" text-anchor="end" font-family="ui-monospace,'SF Mono',Consolas,monospace" font-size="12" fill="#8b949e">172 commits</text><text x="30" y="125" font-family="ui-monospace,'SF Mono',Consolas,monospace" font-size="13.5" fill="#1f2328">echohub-v2</text>
        <rect x="180" y="117" width="420" height="7" rx="3.5" fill="#eaeef2"/>
        <rect x="180" y="117" width="251.51162790697674" height="7" rx="3.5" fill="url(#bar-light)"/>
        <text x="618" y="126" font-family="ui-monospace,'SF Mono',Consolas,monospace" font-size="14.5" font-weight="700" fill="#9a6b1f">29.6%</text>
        <text x="830" y="125" text-anchor="end" font-family="ui-monospace,'SF Mono',Consolas,monospace" font-size="12" fill="#8b949e">103 commits</text><text x="30" y="162" font-family="ui-monospace,'SF Mono',Consolas,monospace" font-size="13.5" fill="#1f2328">vigie</text>
        <rect x="180" y="154" width="420" height="7" rx="3.5" fill="#eaeef2"/>
        <rect x="180" y="154" width="73.25581395348837" height="7" rx="3.5" fill="url(#bar-light)"/>
        <text x="618" y="163" font-family="ui-monospace,'SF Mono',Consolas,monospace" font-size="14.5" font-weight="700" fill="#9a6b1f">8.6%</text>
        <text x="830" y="162" text-anchor="end" font-family="ui-monospace,'SF Mono',Consolas,monospace" font-size="12" fill="#8b949e">30 commits</text><text x="30" y="199" font-family="ui-monospace,'SF Mono',Consolas,monospace" font-size="13.5" fill="#1f2328">echo-centre</text>
        <rect x="180" y="191" width="420" height="7" rx="3.5" fill="#eaeef2"/>
        <rect x="180" y="191" width="43.95348837209303" height="7" rx="3.5" fill="url(#bar-light)"/>
        <text x="618" y="200" font-family="ui-monospace,'SF Mono',Consolas,monospace" font-size="14.5" font-weight="700" fill="#9a6b1f">5.2%</text>
        <text x="830" y="199" text-anchor="end" font-family="ui-monospace,'SF Mono',Consolas,monospace" font-size="12" fill="#8b949e">18 commits</text><text x="30" y="236" font-family="ui-monospace,'SF Mono',Consolas,monospace" font-size="13.5" fill="#1f2328">dictee-live</text>
        <rect x="180" y="228" width="420" height="7" rx="3.5" fill="#eaeef2"/>
        <rect x="180" y="228" width="17.093023255813954" height="7" rx="3.5" fill="url(#bar-light)"/>
        <text x="618" y="237" font-family="ui-monospace,'SF Mono',Consolas,monospace" font-size="14.5" font-weight="700" fill="#9a6b1f">2.0%</text>
        <text x="830" y="236" text-anchor="end" font-family="ui-monospace,'SF Mono',Consolas,monospace" font-size="12" fill="#8b949e">7 commits</text><text x="30" y="273" font-family="ui-monospace,'SF Mono',Consolas,monospace" font-size="13.5" fill="#1f2328">echohub</text>
        <rect x="180" y="265" width="420" height="7" rx="3.5" fill="#eaeef2"/>
        <rect x="180" y="265" width="9.767441860465116" height="7" rx="3.5" fill="url(#bar-light)"/>
        <text x="618" y="274" font-family="ui-monospace,'SF Mono',Consolas,monospace" font-size="14.5" font-weight="700" fill="#9a6b1f">1.1%</text>
        <text x="830" y="273" text-anchor="end" font-family="ui-monospace,'SF Mono',Consolas,monospace" font-size="12" fill="#8b949e">4 commits</text>
</svg>