<svg xmlns="http://www.w3.org/2000/svg" width="860" height="316" viewBox="0 0 860 316" role="img">
  <defs><linearGradient id="cm-light" x1="0" y1="0" x2="0" y2="1">
    <stop offset="0" stop-color="#ffffff"/><stop offset="1" stop-color="#f6f8fa"/></linearGradient></defs>
  <rect x="0.5" y="0.5" width="859" height="315" rx="12" fill="url(#cm-light)" stroke="#d0d7de"/>
  <rect x="0.5" y="0.5" width="859" height="2.5" rx="1" fill="#9a6b1f"/>
  <text x="30" y="40" font-family="ui-monospace,'SF Mono',Consolas,monospace" font-size="12" letter-spacing="1.5" fill="#59636e">COMMITS BY PROJECT · TOP PUBLIC REPOS</text>
  <text x="30" y="65" font-family="ui-monospace,'SF Mono',Consolas,monospace" font-size="13" fill="#1f2328">echohub</text>
        <rect x="180" y="51" width="590" height="13" rx="6" fill="#eaeef2"/>
        <rect x="180" y="51" width="590" height="13" rx="6" fill="#3178c6"/>
        <text x="782" y="64" font-family="ui-monospace,'SF Mono',Consolas,monospace" font-size="12.5" fill="#59636e">526</text><text x="30" y="95" font-family="ui-monospace,'SF Mono',Consolas,monospace" font-size="13" fill="#1f2328">ccremote</text>
        <rect x="180" y="81" width="590" height="13" rx="6" fill="#eaeef2"/>
        <rect x="180" y="81" width="391.4638783269962" height="13" rx="6" fill="#3178c6"/>
        <text x="782" y="94" font-family="ui-monospace,'SF Mono',Consolas,monospace" font-size="12.5" fill="#59636e">349</text><text x="30" y="125" font-family="ui-monospace,'SF Mono',Consolas,monospace" font-size="13" fill="#1f2328">vela</text>
        <rect x="180" y="111" width="590" height="13" rx="6" fill="#eaeef2"/>
        <rect x="180" y="111" width="183.95437262357413" height="13" rx="6" fill="#3178c6"/>
        <text x="782" y="124" font-family="ui-monospace,'SF Mono',Consolas,monospace" font-size="12.5" fill="#59636e">164</text><text x="30" y="155" font-family="ui-monospace,'SF Mono',Consolas,monospace" font-size="13" fill="#1f2328">echohub-v2</text>
        <rect x="180" y="141" width="590" height="13" rx="6" fill="#eaeef2"/>
        <rect x="180" y="141" width="114.4106463878327" height="13" rx="6" fill="#3572A5"/>
        <text x="782" y="154" font-family="ui-monospace,'SF Mono',Consolas,monospace" font-size="12.5" fill="#59636e">102</text><text x="30" y="185" font-family="ui-monospace,'SF Mono',Consolas,monospace" font-size="13" fill="#1f2328">claude-arcade</text>
        <rect x="180" y="171" width="590" height="13" rx="6" fill="#eaeef2"/>
        <rect x="180" y="171" width="69.54372623574145" height="13" rx="6" fill="#3178c6"/>
        <text x="782" y="184" font-family="ui-monospace,'SF Mono',Consolas,monospace" font-size="12.5" fill="#59636e">62</text><text x="30" y="215" font-family="ui-monospace,'SF Mono',Consolas,monospace" font-size="13" fill="#1f2328">vigie</text>
        <rect x="180" y="201" width="590" height="13" rx="6" fill="#eaeef2"/>
        <rect x="180" y="201" width="32.52851711026616" height="13" rx="6" fill="#F05138"/>
        <text x="782" y="214" font-family="ui-monospace,'SF Mono',Consolas,monospace" font-size="12.5" fill="#59636e">29</text><text x="30" y="245" font-family="ui-monospace,'SF Mono',Consolas,monospace" font-size="13" fill="#1f2328">echo-os</text>
        <rect x="180" y="231" width="590" height="13" rx="6" fill="#eaeef2"/>
        <rect x="180" y="231" width="30.285171102661597" height="13" rx="6" fill="#44a51c"/>
        <text x="782" y="244" font-family="ui-monospace,'SF Mono',Consolas,monospace" font-size="12.5" fill="#59636e">27</text><text x="30" y="275" font-family="ui-monospace,'SF Mono',Consolas,monospace" font-size="13" fill="#1f2328">nullnode</text>
        <rect x="180" y="261" width="590" height="13" rx="6" fill="#eaeef2"/>
        <rect x="180" y="261" width="23.55513307984791" height="13" rx="6" fill="#3178c6"/>
        <text x="782" y="274" font-family="ui-monospace,'SF Mono',Consolas,monospace" font-size="12.5" fill="#59636e">21</text>
</svg>